<svg width="20" height="20" viewBox="0 0 20 20" fill="none" xmlns="http://www.w3.org/2000/svg">
<path d="M2.5 1.25C1.12109 1.25 0 2.37109 0 3.75V16.25C0 17.6289 1.12109 18.75 2.5 18.75H17.5C18.8789 18.75 20 17.6289 20 16.25V3.75C20 2.37109 18.8789 1.25 17.5 1.25H2.5ZM6.83594 6.83594C7.20312 6.46875 7.79687 6.46875 8.16016 6.83594L9.99609 8.67188L11.832 6.83594C12.1992 6.46875 12.793 6.46875 13.1562 6.83594C13.5195 7.20312 13.5234 7.79687 13.1562 8.16016L11.3203 9.99609L13.1562 11.832C13.5234 12.1992 13.5234 12.793 13.1562 13.1562C12.7891 13.5195 12.1953 13.5234 11.832 13.1562L9.99609 11.3203L8.16016 13.1562C7.79297 13.5234 7.19922 13.5234 6.83594 13.1562C6.47266 12.7891 6.46875 12.1953 6.83594 11.832L8.67188 9.99609L6.83594 8.16016C6.46875 7.79297 6.46875 7.19922 6.83594 6.83594Z" fill="#AA2121"/>
</svg>
