<svg width="20" height="20" viewBox="0 0 20 20" fill="none" xmlns="http://www.w3.org/2000/svg">
<g clip-path="url(#clip0_25_522)">
<path d="M0 17.1429C0 18.7188 1.28125 20 2.85714 20H17.1429C18.7188 20 20 18.7188 20 17.1429V2.85714C20 1.28125 18.7188 0 17.1429 0H2.85714C1.28125 0 0 1.28125 0 2.85714V17.1429ZM5.71429 10C5.71429 9.70089 5.83929 9.41964 6.05804 9.21429L11.058 4.57143C11.3705 4.28125 11.8259 4.20536 12.2143 4.375C12.6027 4.54464 12.8571 4.93304 12.8571 5.35714V14.6429C12.8571 15.067 12.6027 15.4554 12.2143 15.625C11.8259 15.7946 11.3705 15.7188 11.058 15.4286L6.05804 10.7857C5.83929 10.5848 5.71429 10.2991 5.71429 10Z" fill="#424242"/>
</g>
<defs>
<clipPath id="clip0_25_522">
<rect width="20" height="20" fill="white"/>
</clipPath>
</defs>
</svg>
