<svg width="20" height="20" viewBox="0 0 20 20" fill="none" xmlns="http://www.w3.org/2000/svg">
<g clip-path="url(#clip0_11_218)">
<path d="M0 0.9375C0 0.417969 0.371528 0 0.833333 0H2.41319C3.17708 0 3.85417 0.5 4.17014 1.25H18.441C19.3542 1.25 20.0208 2.22656 19.7813 3.21875L18.3576 9.16797C18.0625 10.3945 17.0729 11.25 15.9444 11.25H5.92708L6.11458 12.3633C6.19097 12.8047 6.53472 13.125 6.93403 13.125H16.9444C17.4062 13.125 17.7778 13.543 17.7778 14.0625C17.7778 14.582 17.4062 15 16.9444 15H6.93403C5.73264 15 4.70139 14.0391 4.47917 12.7148L2.6875 2.12891C2.66319 1.98047 2.54861 1.875 2.41319 1.875H0.833333C0.371528 1.875 0 1.45703 0 0.9375ZM4.44444 18.125C4.44444 17.8788 4.48755 17.635 4.57131 17.4075C4.65507 17.18 4.77784 16.9733 4.9326 16.7992C5.08736 16.6251 5.2711 16.487 5.47331 16.3927C5.67552 16.2985 5.89224 16.25 6.11111 16.25C6.32998 16.25 6.54671 16.2985 6.74892 16.3927C6.95113 16.487 7.13486 16.6251 7.28962 16.7992C7.44439 16.9733 7.56715 17.18 7.65091 17.4075C7.73467 17.635 7.77778 17.8788 7.77778 18.125C7.77778 18.3712 7.73467 18.615 7.65091 18.8425C7.56715 19.07 7.44439 19.2767 7.28962 19.4508C7.13486 19.6249 6.95113 19.763 6.74892 19.8573C6.54671 19.9515 6.32998 20 6.11111 20C5.89224 20 5.67552 19.9515 5.47331 19.8573C5.2711 19.763 5.08736 19.6249 4.9326 19.4508C4.77784 19.2767 4.65507 19.07 4.57131 18.8425C4.48755 18.615 4.44444 18.3712 4.44444 18.125ZM16.1111 16.25C16.5531 16.25 16.9771 16.4475 17.2896 16.7992C17.6022 17.1508 17.7778 17.6277 17.7778 18.125C17.7778 18.6223 17.6022 19.0992 17.2896 19.4508C16.9771 19.8025 16.5531 20 16.1111 20C15.6691 20 15.2452 19.8025 14.9326 19.4508C14.62 19.0992 14.4444 18.6223 14.4444 18.125C14.4444 17.6277 14.62 17.1508 14.9326 16.7992C15.2452 16.4475 15.6691 16.25 16.1111 16.25Z" fill="#FFA132"/>
</g>
<defs>
<clipPath id="clip0_11_218">
<rect width="20" height="20" fill="white"/>
</clipPath>
</defs>
</svg>
