<?xml version="1.0" encoding="UTF-8" standalone="no"?>
<!DOCTYPE svg PUBLIC "-//W3C//DTD SVG 1.1//EN" "http://www.w3.org/Graphics/SVG/1.1/DTD/svg11.dtd">
<svg width="100%" height="100%" viewBox="0 0 1600 300" version="1.1" xmlns="http://www.w3.org/2000/svg" xmlns:xlink="http://www.w3.org/1999/xlink" xml:space="preserve" xmlns:serif="http://www.serif.com/" style="fill-rule:evenodd;clip-rule:evenodd;stroke-linejoin:round;stroke-miterlimit:2;">
    <g transform="matrix(1,0,0,1,0,-465.495)">
        <g id="logo-dark" transform="matrix(0.8,0,0,0.150041,0,465.412)">
            <rect x="0" y="0.549" width="2000" height="1999.45" style="fill:none;"/>
            <clipPath id="_clip1">
                <rect x="0" y="0.549" width="2000" height="1999.45"/>
            </clipPath>
            <g clip-path="url(#_clip1)">
                <g transform="matrix(3.21098,0,0,2.03742,-3084.3,-856.274)">
                    <path d="M1583.41,1188.75L1583.41,1401.91L1407.67,1401.91L1583.41,1188.75Z" style="fill:rgb(156,156,156);"/>
                </g>
                <g transform="matrix(1.84926e-17,1.07018,-6.92511,1.50261e-15,10232.2,305.468)">
                    <path d="M1583.41,1188.75L1583.41,1401.91L1533.93,1401.91L1533.93,1197.73L1497.67,1197.73L1497.67,1364.09L1448.19,1364.09L1448.19,1197.73L1408.24,1197.73L1408.24,1325.5L1358.76,1325.5L1358.76,1197.73L1318.81,1197.73L1318.81,1286.63L1269.33,1286.63L1269.33,1197.73L1227.08,1197.73L1227.08,1244.05L1177.6,1244.05L1177.6,1197.73L741.294,1197.73L741.294,1197.82L-47.472,1265.72L743.758,1265.72L743.758,1274.68L-284.923,1274.78L-284.923,1265.79L500.556,1197.75L-282.458,1197.78L-282.458,1188.75L1583.41,1188.75Z" style="fill:rgb(49,49,49);"/>
                </g>
                <g transform="matrix(2.17279,0,0,7.76888,-988.188,-4326.54)">
                    <rect x="1018.48" y="578.886" width="45.519" height="101.028" style="fill:rgb(156,156,156);"/>
                </g>
                <g transform="matrix(10.1638,0,0,36.0158,-6016.83,-27151.5)">
                    <rect x="591.988" y="753.892" width="6.226" height="30.469" style="fill:rgb(49,49,49);fill-rule:nonzero;"/>
                </g>
                <g transform="matrix(10.1638,0,0,36.0158,-6016.83,-27151.5)">
                    <path d="M661.861,784.458L654.43,784.458L647.051,774.668L609.347,774.668L609.347,784.458L603.17,784.458L603.243,753.941L654.537,753.941C659.371,753.941 661.788,756.341 661.788,761.143L661.788,767.393C661.788,772.243 659.322,774.668 654.39,774.668L661.861,784.458ZM653.026,760.044L609.347,760.044L609.347,768.613L653.267,768.613C654.879,768.613 655.693,767.753 655.709,766.033L655.709,762.503C655.725,760.864 654.831,760.044 653.026,760.044Z" style="fill:rgb(49,49,49);fill-rule:nonzero;"/>
                </g>
                <g transform="matrix(10.1638,0,0,36.0158,-6016.83,-27151.5)">
                    <path d="M719.185,775.944L719.185,762.625C719.185,760.921 718.372,760.068 716.745,760.068L675.312,760.068C673.685,760.068 672.872,760.864 672.872,762.455L672.872,775.871C672.872,777.527 673.685,778.355 675.312,778.355L716.794,778.355C718.388,778.355 719.185,777.551 719.185,775.944ZM674.019,784.458C669.137,784.458 666.695,782.009 666.695,777.109L666.695,761.289C666.695,756.406 669.112,753.965 673.946,753.965L717.867,753.965C722.831,753.965 725.313,756.463 725.313,761.46L725.313,777.256C725.313,782.009 722.913,784.385 718.111,784.385L674.019,784.458Z" style="fill:rgb(49,49,49);fill-rule:nonzero;"/>
                </g>
                <g transform="matrix(4.86166,0,0,15.553,-4447.14,-22204.4)">
                    <g transform="matrix(1.08449,0,0,1.20124,-77.2817,-287.315)">
                        <path d="M918.4,1520.07C915.959,1520.07 914.738,1518.84 914.738,1516.38L914.738,1504.81C914.738,1502.37 915.967,1501.14 918.425,1501.14L933.659,1501.14L931.828,1505.42L920.842,1505.42L920.842,1515.79L929.997,1515.79C932.438,1515.79 933.659,1517.01 933.659,1519.45L933.659,1531.05C933.659,1533.49 932.438,1534.71 929.997,1534.71L914.738,1534.71L916.569,1530.44L927.556,1530.44L927.556,1520.07L918.4,1520.07Z" style="fill:rgb(63,158,217);fill-rule:nonzero;"/>
                    </g>
                    <g transform="matrix(1.08449,0,0,1.20124,-77.2817,-287.315)">
                        <path d="M944.621,1509.69L946.452,1513.96L942.18,1513.96L942.18,1530.44L944.621,1530.44L946.452,1534.71L939.763,1534.71C937.305,1534.71 936.076,1533.49 936.076,1531.05L936.076,1513.96L934.245,1513.96L932.414,1509.69L936.076,1509.69L936.076,1501.17L942.18,1501.14L942.18,1509.69L944.621,1509.69Z" style="fill:rgb(63,158,217);fill-rule:nonzero;"/>
                    </g>
                    <g transform="matrix(1.08449,0,0,1.20124,-77.2817,-287.315)">
                        <path d="M960.319,1530.44L960.319,1513.96L953.605,1513.96L953.605,1530.44L960.319,1530.44ZM951.164,1534.71C948.722,1534.71 947.502,1533.49 947.502,1531.03L947.502,1513.35C947.502,1510.91 948.731,1509.69 951.188,1509.69L962.761,1509.69C965.202,1509.69 966.423,1510.91 966.423,1513.35L966.423,1531.05C966.423,1533.48 965.202,1534.7 962.761,1534.71L951.164,1534.71Z" style="fill:rgb(63,158,217);fill-rule:nonzero;"/>
                    </g>
                    <g transform="matrix(1.08449,0,0,1.20124,-77.2817,-287.315)">
                        <path d="M968.864,1534.69L968.864,1513.35C968.864,1510.91 970.093,1509.69 972.551,1509.69L982.902,1509.69L981.071,1513.96L974.968,1513.96L974.968,1534.71L968.864,1534.69Z" style="fill:rgb(63,158,217);fill-rule:nonzero;"/>
                    </g>
                    <g transform="matrix(1.08449,0,0,1.20124,-77.2817,-287.315)">
                        <path d="M989.03,1521.29L995.744,1521.29L995.744,1513.96L989.03,1513.96L989.03,1521.29ZM989.03,1525.56L989.03,1530.44L999.406,1530.44L997.575,1534.71L986.589,1534.71C984.147,1534.71 982.927,1533.49 982.927,1531.05L982.927,1513.35C982.927,1510.91 984.147,1509.69 986.589,1509.69L998.185,1509.69C1000.63,1509.69 1001.85,1510.92 1001.85,1513.38L1001.85,1521.9C1001.85,1524.34 1000.62,1525.56 998.161,1525.56L989.03,1525.56Z" style="fill:rgb(63,158,217);fill-rule:nonzero;"/>
                    </g>
                </g>
            </g>
        </g>
    </g>
</svg>
