<svg width="39" height="40" viewBox="0 0 39 40" fill="none" xmlns="http://www.w3.org/2000/svg">
<g clip-path="url(#clip0_22_21)">
<path d="M19.375 0.625C8.67188 0.625 0 9.29688 0 20C0 30.7031 8.67188 39.375 19.375 39.375C30.0781 39.375 38.75 30.7031 38.75 20C38.75 9.29688 30.0781 0.625 19.375 0.625ZM28.3594 13.8047C28.0703 16.8672 26.8047 24.3047 26.1641 27.7344C25.8906 29.1875 25.3594 29.6719 24.8438 29.7188C23.7188 29.8203 22.8672 28.9766 21.7734 28.2578C20.0703 27.1406 19.1016 26.4453 17.4531 25.3516C15.5391 24.0938 16.7812 23.3984 17.8672 22.2656C18.1562 21.9688 23.1094 17.4609 23.2031 17.0547C23.2188 17 23.2266 16.8125 23.1094 16.7109C22.9922 16.6094 22.8281 16.6484 22.7109 16.6719C22.5391 16.7083 19.8151 18.5078 14.5391 22.0703C13.7682 22.6016 13.0677 22.8594 12.4375 22.8438C11.7422 22.8281 10.4141 22.4531 9.42188 22.1328C8.21094 21.7422 7.24219 21.5312 7.32812 20.8594C7.36979 20.5104 7.85156 20.1536 8.77344 19.7891C14.4193 17.3307 18.1849 15.7083 20.0703 14.9219C25.4531 12.6875 26.5703 12.2969 27.2969 12.2812C27.4609 12.2812 27.8125 12.3203 28.0469 12.5078C28.1998 12.6423 28.2973 12.8289 28.3203 13.0312C28.3626 13.2868 28.3757 13.5462 28.3594 13.8047Z" fill="white"/>
</g>
<defs>
<clipPath id="clip0_22_21">
<rect width="38.75" height="40" fill="white"/>
</clipPath>
</defs>
</svg>
