<svg width="35" height="40" viewBox="0 0 35 40" fill="none" xmlns="http://www.w3.org/2000/svg">
<path d="M2.46094 4.96094C0 7.42188 0 11.3828 0 19.2969V20.7031C0 28.6172 0 32.5781 2.46094 35.0391C4.92188 37.5 8.88281 37.5 16.7969 37.5H18.2031C26.1172 37.5 30.0781 37.5 32.5391 35.0391C35 32.5781 35 28.6172 35 20.7031V19.2969C35 11.3828 35 7.42188 32.5391 4.96094C30.0781 2.5 26.1172 2.5 18.2031 2.5H16.7969C8.88281 2.5 4.92188 2.5 2.46094 4.96094ZM5.90625 13.1484H9.89844C10.0312 19.8281 12.9766 22.6562 15.3125 23.2344V13.1484H19.0781V18.9062C21.3828 18.6562 23.7969 16.0312 24.6172 13.1484H28.3828C28.0703 14.6406 27.4609 16.0625 26.5781 17.3125C25.6953 18.5625 24.5703 19.6172 23.2578 20.4062C24.7188 21.1328 26.0078 22.1562 27.0391 23.4219C28.0781 24.6797 28.8281 26.1406 29.2578 27.7109H25.1094C24.7344 26.3516 23.9531 25.125 22.8828 24.2031C21.8047 23.2734 20.4844 22.6875 19.0781 22.5078V27.7109H18.625C10.6484 27.7109 6.09375 22.2422 5.90625 13.1484Z" fill="white"/>
</svg>
